<?xml version="1.0" encoding="utf-8"?>
<!-- Generator: Adobe Illustrator 22.1.0, SVG Export Plug-In . SVG Version: 6.00 Build 0)  -->
<svg version="1.1" id="Layer_1" xmlns="http://www.w3.org/2000/svg" xmlns:xlink="http://www.w3.org/1999/xlink" x="0px" y="0px"
	 viewBox="0 0 2304 2304" style="enable-background:new 0 0 2304 2304;" xml:space="preserve">
<style type="text/css">
	.st0{fill:#FFFFFF;stroke:#000000;stroke-width:7;stroke-miterlimit:10;}
	.st1{fill:#3A024C;stroke:#000000;stroke-miterlimit:10;}
	.st2{fill:#3F82DD;}
	.st3{fill:#C6371D;}
	.st4{fill:#265835;}
	.st5{fill:#982A7F;}
	.st6{fill:#CDCDCB;}
	.st7{fill:#E8D94B;}
	.st8{fill:#161613;}
</style>
<rect x="361.5" y="231.5" class="st0" width="1541" height="1760"/>
<rect x="519.6" y="359.5" class="st1" width="1205.2" height="1473"/>
<polygon class="st2" points="1356,1539.9 1356,1620.5 1129,1620.5 1129,1417 1192.8,1417 1192.8,1539.9 "/>
<path class="st3" d="M1414,1482c0,46.3,0,92.7,0,139h-67.6c-0.1-25.4-0.3-50.9-0.4-76.3c-25.7,0-51.3,0-77,0c0-45.2,0-90.5,0-135.7
	c22.7,0,45.3,0,68,0c0,24.3,0,48.7,0,73C1362.7,1482,1388.3,1482,1414,1482z"/>
<path class="st4" d="M1269,1545c-25.3,0-50.7,0-76,0c0-85.3,0-170.7,0-256h76C1269,1374.3,1269,1459.7,1269,1545z"/>
<polygon class="st5" points="1129,1485 1129,1621 907,1621 907,1485 983,1485 983,1545 1053,1545 1053,1485 "/>
<path class="st6" d="M1129,1416v75h-76c0,18,0,36,0,54c-23.3,0-46.7,0-70,0c0-18,0-36,0-54c-25.3,0-50.7,0-76,0v-75H1129z"/>
<path class="st7" d="M1489,1409c0,70.7,0,141.3,0,212c-25,0-50,0-75,0c0-46.3,0-92.7,0-139c-25.7,0-51.3,0-77,0c0-24.3,0-48.7,0-73
	C1387.7,1409,1438.3,1409,1489,1409z"/>
<rect x="1062" y="1290" class="st8" width="131" height="127"/>
<polygon class="st7" points="1147.5,1211.5 1147.5,1289.5 1062.5,1289.5 1062.5,1416.5 985.5,1416.5 985.5,1211.5 "/>
<path class="st3" d="M839,1353c0,46.3,0,92.7,0,139h67.6c0.1-25.4,0.3-50.9,0.4-76.3c26,0.1,52,0.2,78,0.3c0-45.3,0-90.7,0-136
	c-23,0-46,0-69,0c0,24.3,0,48.7,0,73C890.3,1353,864.7,1353,839,1353z"/>
<path class="st6" d="M839.5,1138h75v73.4c23.5,0.2,47,0.3,70.5,0.5c0,23.5,0,47,0,70.5c-23,0-46,0-69,0c0,23.5,0,47,0,70.5
	c-25.7,0-51.3,0-77,0C839.2,1281.3,839.3,1209.7,839.5,1138z"/>
<rect x="1490" y="1494" class="st8" width="131" height="127"/>
</svg>
