<?xml version="1.0" encoding="utf-8"?>
<!-- Generator: Adobe Illustrator 22.1.0, SVG Export Plug-In . SVG Version: 6.00 Build 0)  -->
<svg version="1.1" xmlns="http://www.w3.org/2000/svg" xmlns:xlink="http://www.w3.org/1999/xlink" x="0px" y="0px"
	 viewBox="0 0 2304 2304" style="enable-background:new 0 0 2304 2304;" xml:space="preserve">
<style type="text/css">
	.st0{fill:#FFFFFF;stroke:#000000;stroke-width:7;stroke-miterlimit:10;}
	.st1{fill:#3A024C;stroke:#000000;stroke-miterlimit:10;}
	.st2{display:none;}
	.st3{display:inline;fill:#D7BFB0;}
	.st4{fill:#3F82DD;}
	.st5{fill:#C6371D;}
	.st6{fill:#265835;}
	.st7{fill:#982A7F;}
	.st8{fill:#CDCDCB;}
	.st9{fill:#E8D94B;}
	.st10{fill:#161613;}
</style>
<g id="Layer_1">
	<rect x="410.5" y="227.5" class="st0" width="1541" height="1760"/>
</g>
<g id="Layer_3">
	<rect x="568.6" y="355.5" class="st1" width="1205.2" height="1473"/>
</g>
<g id="Layer_4" class="st2">
	<rect x="568.6" y="1612.5" class="st3" width="1205.2" height="216"/>
</g>
<g id="Layer_5">
	<polygon class="st4" points="1405,1535.9 1405,1616.5 1178,1616.5 1178,1413 1241.8,1413 1241.8,1535.9 	"/>
	<path class="st5" d="M1463,1478c0,46.3,0,92.7,0,139h-67.6c-0.1-25.4-0.3-50.9-0.4-76.3c-25.7,0-51.3,0-77,0c0-45.2,0-90.5,0-135.7
		c22.7,0,45.3,0,68,0c0,24.3,0,48.7,0,73C1411.7,1478,1437.3,1478,1463,1478z"/>
	<path class="st6" d="M1318,1541c-25.3,0-50.7,0-76,0c0-85.3,0-170.7,0-256h76C1318,1370.3,1318,1455.7,1318,1541z"/>
	<polygon class="st7" points="1178,1481 1178,1617 956,1617 956,1481 1032,1481 1032,1541 1102,1541 1102,1481 	"/>
	<path class="st8" d="M1178,1412v75h-76c0,18,0,36,0,54c-23.3,0-46.7,0-70,0c0-18,0-36,0-54c-25.3,0-50.7,0-76,0v-75H1178z"/>
	<path class="st9" d="M1538,1405c0,70.7,0,141.3,0,212c-25,0-50,0-75,0c0-46.3,0-92.7,0-139c-25.7,0-51.3,0-77,0c0-24.3,0-48.7,0-73
		C1436.7,1405,1487.3,1405,1538,1405z"/>
	<rect x="1111" y="1286" class="st10" width="131" height="127"/>
	<polygon class="st9" points="1196.5,1207.5 1196.5,1285.5 1111.5,1285.5 1111.5,1412.5 1034.5,1412.5 1034.5,1207.5 	"/>
	<path class="st5" d="M888,1349c0,46.3,0,92.7,0,139h67.6c0.1-25.4,0.3-50.9,0.4-76.3c26,0.1,52,0.2,78,0.3c0-45.3,0-90.7,0-136
		c-23,0-46,0-69,0c0,24.3,0,48.7,0,73C939.3,1349,913.7,1349,888,1349z"/>
	<path class="st8" d="M888.5,1134h75v73.4c23.5,0.2,47,0.3,70.5,0.5c0,23.5,0,47,0,70.5c-23,0-46,0-69,0c0,23.5,0,47,0,70.5
		c-25.7,0-51.3,0-77,0C888.2,1277.3,888.3,1205.7,888.5,1134z"/>
	<rect x="1539" y="1490" class="st10" width="131" height="127"/>
</g>
<g id="purple">
	<polygon class="st7" points="1169,1019 1169,883 1391,883 1391,1019 1315,1019 1315,959 1245,959 1245,1019 	"/>
</g>
<g id="blue">
	<polygon class="st4" points="1589.7,1265.2 1670.2,1265.2 1670.2,1038.2 1466.8,1038.2 1466.8,1102.1 1589.7,1102.1 	"/>
</g>
<g id="green">
	<path class="st6" d="M1149,767c-25.3,0-50.7,0-76,0c0-85.3,0-170.7,0-256h76C1149,596.3,1149,681.7,1149,767z"/>
</g>
<g id="orange">
	<path class="st5" d="M814,663c0,46.3,0,92.7,0,139h67.6c0.1-25.4,0.3-50.9,0.4-76.3c25.7,0,51.3,0,77,0c0-45.2,0-90.5,0-135.7
		c-22.7,0-45.3,0-68,0c0,24.3,0,48.7,0,73C865.3,663,839.7,663,814,663z"/>
</g>
</svg>
